Coordinates
version=1
nRows=6
nColumns=46
inDegrees=yes

Units are S.I. units (second, meters, Newtons, ...)
Angles are in degrees.

endheader
time	pelvis_tilt	pelvis_list	pelvis_rotation	pelvis_tx	pelvis_ty	pelvis_tz	bb_angle	bb_tx	bb_ty	bb_tz	hip_flexion_r	hip_adduction_r	hip_rotation_r	knee_angle_r	knee_angle_r_beta	ankle_angle_r	subtalar_angle_r	mtp_angle_r	crank_angle_r	hip_flexion_l	hip_adduction_l	hip_rotation_l	knee_angle_l	knee_angle_l_beta	ankle_angle_l	subtalar_angle_l	mtp_angle_l	crank_angle_l	lumbar_extension	lumbar_bending	lumbar_rotation	arm_flex_r	arm_add_r	arm_rot_r	elbow_flex_r	pro_sup_r	wrist_flex_r	wrist_dev_r	arm_flex_l	arm_add_l	arm_rot_l	elbow_flex_l	pro_sup_l	wrist_flex_l	wrist_dev_l
      0.00000000	    -30.96190218	     -3.06699890	     -4.87098452	      0.05822308	      0.98054485	     -0.21241428	      0.00000000	      0.50000000	      0.00000000	      0.25000000	    106.77368071	     -9.63823370	     -7.53730535	     97.11601111	      1.69499415	     14.30631153	      6.31151910	      0.00000000	      0.00000000	     66.87645484	    -12.69953072	     -0.52041226	     63.77780634	      1.11313271	    -18.10750357	    -12.89416628	      0.00000000	      0.00000000	    -30.21644892	      1.97511019	      6.06376392	     88.07258072	     -5.30380878	     48.00025006	     23.45493507	     41.63363407	      0.00000000	      0.00000000	     84.66629279	    -12.94545898	     49.03219449	     29.05588112	     43.02946335	      0.00000000	      0.00000000
      0.00500000	    -30.95286036	     -3.08030772	     -4.85559378	      0.05828438	      0.98057226	     -0.21239310	      0.00000000	      0.50000000	      0.00000000	      0.25000000	    106.74009553	     -9.65504617	     -7.56483957	     97.08383395	      1.69443255	     14.29223225	      6.28395846	      0.00000000	      0.00000000	     66.88214480	    -12.71168723	     -0.51124946	     63.82419111	      1.11394228	    -18.04569130	    -12.82480314	      0.00000000	      0.00000000	    -30.23380774	      1.99139514	      6.01980255	     88.08188384	     -5.17925589	     48.03095588	     23.21995082	     41.61351952	      0.00000000	      0.00000000	     84.67209001	    -13.03608340	     48.99504735	     29.17497189	     43.11720758	      0.00000000	      0.00000000
      0.01000000	    -30.88674325	     -3.00428765	     -4.83443598	      0.05841490	      0.98075008	     -0.21235565	      0.00000000	      0.50000000	      0.00000000	      0.25000000	    106.67638529	     -9.67018611	     -7.49114387	     97.06260676	      1.69406207	     14.30372786	      6.34371907	      0.00000000	      0.00000000	     66.76900942	    -12.65951568	     -0.60982328	     63.78683378	      1.11329027	    -18.19432020	    -13.06335300	      0.00000000	      0.00000000	    -30.32072138	      1.91911040	      5.89331396	     88.05781798	     -4.91752911	     47.29532444	     23.27002549	     40.83114285	      0.00000000	      0.00000000	     84.53384898	    -13.01129054	     48.10189510	     29.41793788	     42.61963600	      0.00000000	      0.00000000
      0.01500000	    -30.97246844	     -3.04505749	     -4.80818325	      0.05835521	      0.98056636	     -0.21235451	      0.00000000	      0.50000000	      0.00000000	      0.25000000	    106.75378739	     -9.68765829	     -7.52140215	     97.02798100	      1.69345774	     14.26780927	      6.31796747	      0.00000000	      0.00000000	     66.93681334	    -12.67881034	     -0.55020724	     63.90893239	      1.11542129	    -18.06127694	    -12.82562433	      0.00000000	      0.00000000	    -30.22628729	      1.99794372	      5.93764739	     88.11944375	     -4.95873897	     47.54001549	     23.13369972	     40.97184479	      0.00000000	      0.00000000	     84.52889980	    -13.09084216	     48.54834746	     29.32061790	     42.77835054	      0.00000000	      0.00000000
      0.02000000	    -30.93048431	     -3.11948426	     -4.81595751	      0.05844925	      0.98031692	     -0.21223175	      0.00000000	      0.50000000	      0.00000000	      0.25000000	    106.73158967	     -9.69797854	     -7.56581199	     97.06915548	      1.69417637	     14.23180898	      6.39056670	      0.00000000	      0.00000000	     66.83159127	    -12.72951881	     -0.49605431	     63.82888292	      1.11402416	    -18.12714983	    -12.69164491	      0.00000000	      0.00000000	    -30.28327751	      2.02204406	      5.98682458	     88.13907413	     -5.59845621	     49.94692454	     23.53097255	     41.52440102	      0.00000000	      0.00000000	     84.74692835	    -13.44930290	     50.10948282	     29.60494852	     43.37591514	      0.00000000	      0.00000000
      0.02500000	    -30.93026503	     -3.11334068	     -4.79312479	      0.05848173	      0.98029353	     -0.21223345	      0.00000000	      0.50000000	      0.00000000	      0.25000000	    106.73479336	     -9.72367840	     -7.56807926	     97.06035027	      1.69402269	     14.20055076	      6.31491055	      0.00000000	      0.00000000	     66.82911193	    -12.70528795	     -0.49025720	     63.83669155	      1.11416045	    -18.13806554	    -12.64763264	      0.00000000	      0.00000000	    -30.27992775	      2.05336743	      5.90523630	     88.09375879	     -4.99754595	     48.51105504	     23.02574002	     40.73161792	      0.00000000	      0.00000000	     84.37155691	    -13.06833885	     47.59585997	     29.71667908	     42.75738144	      0.00000000	      0.00000000
